<?xml version="1.0" encoding="UTF-8"?>
<svg id="Capa_1" data-name="Capa 1" xmlns="http://www.w3.org/2000/svg" viewBox="0 0 718.81 500">
  <defs>
    <style>
      .cls-1 {
        fill: #0e222d;
      }

      .cls-2 {
        fill: #00f7ea;
      }

      .cls-3 {
        fill: #5c2de6;
      }
    </style>
  </defs>
  <g>
    <path class="cls-3" d="M391.36,349.67c-2.01.79-4.06,1.55-6.19,2.17-.3.16-.6.25-.92.28-1.02.35-2.01.6-3.07.85-1.2.32-2.42.62-3.67.88-1.5.32-3.03.62-4.57.88-1.92.32-3.93.58-5.93.79-1.22.14-2.47.25-3.79.35-1.59.12-3.21.21-4.9.3h-.32c-1.69.02-3.39.07-5.13.07h-.02c-1.73,0-3.44-.05-5.13-.07h-.32c-1.69-.09-3.35-.18-4.94-.3-1.18-.09-2.36-.21-3.53-.35-.67-.02-1.29-.12-1.96-.21-1.41-.16-2.79-.37-4.18-.58-1.55-.25-3.09-.51-4.62-.88-20.51-4.27-35.56-14.5-45.45-31.06v37.96c7.25,5.8,15.24,10.51,23.88,14.09,1.73.74,3.53,1.41,5.29,2.08,1.8.62,3.6,1.27,5.45,1.8,1.82.55,3.67,1.06,5.57,1.55h.05c1.8.46,3.63.85,5.52,1.22.09,0,.16.05.21.05,1.94.37,3.86.72,5.82.95,1.85.3,3.74.51,5.61.67,4.2.44,8.43.65,12.77.65s8.31-.18,12.33-.6c4.06-.37,7.99-.92,11.85-1.66,1.96-.39,3.86-.81,5.73-1.27,1.89-.46,3.79-.99,5.61-1.55,1.85-.53,3.65-1.18,5.45-1.8,10.65-3.9,20.44-9.4,29.17-16.47v-37.71c-7.51,12.59-18.01,21.52-31.64,26.93ZM393.62,122.99c-3.51-1.29-7.16-2.33-10.85-3.26-1.87-.46-3.76-.88-5.73-1.27-4.11-.78-8.34-1.36-12.7-1.75-1.41-.12-2.89-.21-4.34-.28-2.36-.18-4.73-.23-7.14-.23s-4.8.09-7.21.23c-3.81.16-7.53.53-11.18,1.09-1.96.25-3.88.58-5.82.95-.05,0-.12.05-.21.05-1.89.39-3.72.76-5.52,1.22-2.47.58-4.92,1.29-7.25,2.06-12.17,3.83-23.23,9.7-32.98,17.48v37.94c9.88-16.56,24.94-26.79,45.45-31.06,1.52-.37,3.07-.62,4.62-.88,1.39-.21,2.77-.42,4.18-.58.67-.09,1.29-.16,1.96-.21,1.18-.14,2.36-.25,3.53-.35,1.59-.12,3.26-.21,4.94-.28h.32c1.69-.05,3.39-.09,5.13-.09h.02c1.73,0,3.44.05,5.13.09h.32c1.69.07,3.3.16,4.9.28,1.32.09,2.56.21,3.79.35,2.01.21,4.02.46,5.93.79,1.55.25,3.07.55,4.57.88,1.25.25,2.47.55,3.67.88,1.06.25,2.06.51,3.07.85.32.02.62.12.92.28,2.12.65,4.18,1.39,6.19,2.19,13.62,5.38,24.13,14.32,31.64,26.9v-37.71c-8.78-7.09-18.64-12.63-29.37-16.56Z"/>
    <path class="cls-3" d="M276.66,148.55c2.09,0,4.1.04,6.11.13v-27.56c-2.01-.08-4.06-.13-6.11-.13-33.8,0-62.49,12.19-82.97,35.18-20.52,23.08-31.37,55.45-31.37,93.61s10.85,70.53,31.37,93.57c20.48,23.04,49.17,35.22,82.97,35.22,2.05,0,4.1-.04,6.11-.13v-27.56c-2.01.08-4.02.13-6.11.13-57.71,0-84.6-32.17-84.6-101.23s26.89-101.23,84.6-101.23Z"/>
    <path class="cls-3" d="M172.05,156.34v-28.31c-16,5.86-29.99,15.33-41.42,28.15-20.48,23.08-31.37,55.45-31.37,93.61s10.89,70.53,31.37,93.57c11.43,12.86,25.42,22.32,41.42,28.19v-28.31c-29.15-13.32-43.01-43.89-43.01-93.44s13.86-80.12,43.01-93.44Z"/>
    <path class="cls-3" d="M73.71,249.78c0,22.2,3.69,42.47,10.85,60.06v-120.16c-7.16,17.59-10.85,37.86-10.85,60.1Z"/>
    <path class="cls-3" d="M512.08,156.18c-20.48-22.99-49.17-35.18-82.97-35.18-2.05,0-4.1.04-6.11.13v27.56c2.01-.08,4.02-.13,6.11-.13,57.71,0,84.6,32.17,84.6,101.23s-26.89,101.23-84.6,101.23c-2.09,0-4.1-.04-6.11-.13v27.56c2.01.08,4.06.13,6.11.13,33.8,0,62.49-12.19,82.97-35.22,20.52-23.04,31.37-55.41,31.37-93.57s-10.85-70.53-31.37-93.61Z"/>
    <path class="cls-3" d="M574.33,156.18c-11.43-12.82-25.42-22.28-41.42-28.15v28.31c29.15,13.32,43.01,43.89,43.01,93.44s-13.86,80.12-43.01,93.44v28.31c16-5.86,29.99-15.33,41.42-28.19,20.48-23.04,31.37-55.41,31.37-93.57s-10.89-70.53-31.37-93.61Z"/>
    <path class="cls-3" d="M620.4,189.68v120.16c7.16-17.59,10.85-37.86,10.85-60.06s-3.69-42.51-10.85-60.1Z"/>
  </g>
  <g>
    <path class="cls-2" d="M405.22,349.67c-2.01.79-4.06,1.55-6.19,2.17-.3.16-.6.25-.92.28-1.02.35-2.01.6-3.07.85-1.2.32-2.42.62-3.67.88-1.5.32-3.03.62-4.57.88-1.92.32-3.93.58-5.93.79-1.22.14-2.47.25-3.79.35-1.59.12-3.21.21-4.9.3h-.32c-1.69.02-3.39.07-5.13.07h-.02c-1.73,0-3.44-.05-5.13-.07h-.32c-1.69-.09-3.35-.18-4.94-.3-1.18-.09-2.36-.21-3.53-.35-.67-.02-1.29-.12-1.96-.21-1.41-.16-2.79-.37-4.18-.58-1.55-.25-3.09-.51-4.62-.88-20.51-4.27-35.56-14.5-45.45-31.06v37.96c7.25,5.8,15.24,10.51,23.88,14.09,1.73.74,3.53,1.41,5.29,2.08,1.8.62,3.6,1.27,5.45,1.8,1.82.55,3.67,1.06,5.57,1.55h.05c1.8.46,3.63.85,5.52,1.22.09,0,.16.05.21.05,1.94.37,3.86.72,5.82.95,1.85.3,3.74.51,5.61.67,4.2.44,8.43.65,12.77.65s8.31-.18,12.33-.6c4.06-.37,7.99-.92,11.85-1.66,1.96-.39,3.86-.81,5.73-1.27,1.89-.46,3.79-.99,5.61-1.55,1.85-.53,3.65-1.18,5.45-1.8,10.65-3.9,20.44-9.4,29.17-16.47v-37.71c-7.51,12.59-18.01,21.52-31.64,26.93ZM407.48,122.99c-3.51-1.29-7.16-2.33-10.85-3.26-1.87-.46-3.76-.88-5.73-1.27-4.11-.78-8.34-1.36-12.7-1.75-1.41-.12-2.89-.21-4.34-.28-2.36-.18-4.73-.23-7.14-.23s-4.8.09-7.21.23c-3.81.16-7.53.53-11.18,1.09-1.96.25-3.88.58-5.82.95-.05,0-.12.05-.21.05-1.89.39-3.72.76-5.52,1.22-2.47.58-4.92,1.29-7.25,2.06-12.17,3.83-23.23,9.7-32.98,17.48v37.94c9.88-16.56,24.94-26.79,45.45-31.06,1.52-.37,3.07-.62,4.62-.88,1.39-.21,2.77-.42,4.18-.58.67-.09,1.29-.16,1.96-.21,1.18-.14,2.36-.25,3.53-.35,1.59-.12,3.26-.21,4.94-.28h.32c1.69-.05,3.39-.09,5.13-.09h.02c1.73,0,3.44.05,5.13.09h.32c1.69.07,3.3.16,4.9.28,1.32.09,2.56.21,3.79.35,2.01.21,4.02.46,5.93.79,1.55.25,3.07.55,4.57.88,1.25.25,2.47.55,3.67.88,1.06.25,2.06.51,3.07.85.32.02.62.12.92.28,2.12.65,4.18,1.39,6.19,2.19,13.62,5.38,24.13,14.32,31.64,26.9v-37.71c-8.78-7.09-18.64-12.63-29.37-16.56Z"/>
    <path class="cls-2" d="M290.52,148.55c2.09,0,4.1.04,6.11.13v-27.56c-2.01-.08-4.06-.13-6.11-.13-33.8,0-62.49,12.19-82.97,35.18-20.52,23.08-31.37,55.45-31.37,93.61s10.85,70.53,31.37,93.57c20.48,23.04,49.17,35.22,82.97,35.22,2.05,0,4.1-.04,6.11-.13v-27.56c-2.01.08-4.02.13-6.11.13-57.71,0-84.6-32.17-84.6-101.23s26.89-101.23,84.6-101.23Z"/>
    <path class="cls-2" d="M185.9,156.34v-28.31c-16,5.86-29.99,15.33-41.42,28.15-20.48,23.08-31.37,55.45-31.37,93.61s10.89,70.53,31.37,93.57c11.43,12.86,25.42,22.32,41.42,28.19v-28.31c-29.15-13.32-43.01-43.89-43.01-93.44s13.86-80.12,43.01-93.44Z"/>
    <path class="cls-2" d="M87.56,249.78c0,22.2,3.69,42.47,10.85,60.06v-120.16c-7.16,17.59-10.85,37.86-10.85,60.1Z"/>
    <path class="cls-2" d="M525.94,156.18c-20.48-22.99-49.17-35.18-82.97-35.18-2.05,0-4.1.04-6.11.13v27.56c2.01-.08,4.02-.13,6.11-.13,57.71,0,84.6,32.17,84.6,101.23s-26.89,101.23-84.6,101.23c-2.09,0-4.1-.04-6.11-.13v27.56c2.01.08,4.06.13,6.11.13,33.8,0,62.49-12.19,82.97-35.22,20.52-23.04,31.37-55.41,31.37-93.57s-10.85-70.53-31.37-93.61Z"/>
    <path class="cls-2" d="M588.19,156.18c-11.43-12.82-25.42-22.28-41.42-28.15v28.31c29.15,13.32,43.01,43.89,43.01,93.44s-13.86,80.12-43.01,93.44v28.31c16-5.86,29.99-15.33,41.42-28.19,20.48-23.04,31.37-55.41,31.37-93.57s-10.89-70.53-31.37-93.61Z"/>
    <path class="cls-2" d="M634.26,189.68v120.16c7.16-17.59,10.85-37.86,10.85-60.06s-3.69-42.51-10.85-60.1Z"/>
  </g>
  <g>
    <path class="cls-1" d="M398.29,349.67c-2.01.79-4.06,1.55-6.19,2.17-.3.16-.6.25-.92.28-1.02.35-2.01.6-3.07.85-1.2.32-2.42.62-3.67.88-1.5.32-3.03.62-4.57.88-1.92.32-3.93.58-5.93.79-1.22.14-2.47.25-3.79.35-1.59.12-3.21.21-4.9.3h-.32c-1.69.02-3.39.07-5.13.07h-.02c-1.73,0-3.44-.05-5.13-.07h-.32c-1.69-.09-3.35-.18-4.94-.3-1.18-.09-2.36-.21-3.53-.35-.67-.02-1.29-.12-1.96-.21-1.41-.16-2.79-.37-4.18-.58-1.55-.25-3.09-.51-4.62-.88-20.51-4.27-35.56-14.5-45.45-31.06v37.96c7.25,5.8,15.24,10.51,23.88,14.09,1.73.74,3.53,1.41,5.29,2.08,1.8.62,3.6,1.27,5.45,1.8,1.82.55,3.67,1.06,5.57,1.55h.05c1.8.46,3.63.85,5.52,1.22.09,0,.16.05.21.05,1.94.37,3.86.72,5.82.95,1.85.3,3.74.51,5.61.67,4.2.44,8.43.65,12.77.65s8.31-.18,12.33-.6c4.06-.37,7.99-.92,11.85-1.66,1.96-.39,3.86-.81,5.73-1.27,1.89-.46,3.79-.99,5.61-1.55,1.85-.53,3.65-1.18,5.45-1.8,10.65-3.9,20.44-9.4,29.17-16.47v-37.71c-7.51,12.59-18.01,21.52-31.64,26.93ZM400.55,122.99c-3.51-1.29-7.16-2.33-10.85-3.26-1.87-.46-3.76-.88-5.73-1.27-4.11-.78-8.34-1.36-12.7-1.75-1.41-.12-2.89-.21-4.34-.28-2.36-.18-4.73-.23-7.14-.23s-4.8.09-7.21.23c-3.81.16-7.53.53-11.18,1.09-1.96.25-3.88.58-5.82.95-.05,0-.12.05-.21.05-1.89.39-3.72.76-5.52,1.22-2.47.58-4.92,1.29-7.25,2.06-12.17,3.83-23.23,9.7-32.98,17.48v37.94c9.88-16.56,24.94-26.79,45.45-31.06,1.52-.37,3.07-.62,4.62-.88,1.39-.21,2.77-.42,4.18-.58.67-.09,1.29-.16,1.96-.21,1.18-.14,2.36-.25,3.53-.35,1.59-.12,3.26-.21,4.94-.28h.32c1.69-.05,3.39-.09,5.13-.09h.02c1.73,0,3.44.05,5.13.09h.32c1.69.07,3.3.16,4.9.28,1.32.09,2.56.21,3.79.35,2.01.21,4.02.46,5.93.79,1.55.25,3.07.55,4.57.88,1.25.25,2.47.55,3.67.88,1.06.25,2.06.51,3.07.85.32.02.62.12.92.28,2.12.65,4.18,1.39,6.19,2.19,13.62,5.38,24.13,14.32,31.64,26.9v-37.71c-8.78-7.09-18.64-12.63-29.37-16.56Z"/>
    <path class="cls-1" d="M283.59,148.55c2.09,0,4.1.04,6.11.13v-27.56c-2.01-.08-4.06-.13-6.11-.13-33.8,0-62.49,12.19-82.97,35.18-20.52,23.08-31.37,55.45-31.37,93.61s10.85,70.53,31.37,93.57c20.48,23.04,49.17,35.22,82.97,35.22,2.05,0,4.1-.04,6.11-.13v-27.56c-2.01.08-4.02.13-6.11.13-57.71,0-84.6-32.17-84.6-101.23s26.89-101.23,84.6-101.23Z"/>
    <path class="cls-1" d="M178.98,156.34v-28.31c-16,5.86-29.99,15.33-41.42,28.15-20.48,23.08-31.37,55.45-31.37,93.61s10.89,70.53,31.37,93.57c11.43,12.86,25.42,22.32,41.42,28.19v-28.31c-29.15-13.32-43.01-43.89-43.01-93.44s13.86-80.12,43.01-93.44Z"/>
    <path class="cls-1" d="M80.64,249.78c0,22.2,3.69,42.47,10.85,60.06v-120.16c-7.16,17.59-10.85,37.86-10.85,60.1Z"/>
    <path class="cls-1" d="M519.01,156.18c-20.48-22.99-49.17-35.18-82.97-35.18-2.05,0-4.1.04-6.11.13v27.56c2.01-.08,4.02-.13,6.11-.13,57.71,0,84.6,32.17,84.6,101.23s-26.89,101.23-84.6,101.23c-2.09,0-4.1-.04-6.11-.13v27.56c2.01.08,4.06.13,6.11.13,33.8,0,62.49-12.19,82.97-35.22,20.52-23.04,31.37-55.41,31.37-93.57s-10.85-70.53-31.37-93.61Z"/>
    <path class="cls-1" d="M581.26,156.18c-11.43-12.82-25.42-22.28-41.42-28.15v28.31c29.15,13.32,43.01,43.89,43.01,93.44s-13.86,80.12-43.01,93.44v28.31c16-5.86,29.99-15.33,41.42-28.19,20.48-23.04,31.37-55.41,31.37-93.57s-10.89-70.53-31.37-93.61Z"/>
    <path class="cls-1" d="M627.33,189.68v120.16c7.16-17.59,10.85-37.86,10.85-60.06s-3.69-42.51-10.85-60.1Z"/>
  </g>
</svg>