<?xml version="1.0" encoding="UTF-8"?>
<svg id="Capa_1" data-name="Capa 1" xmlns="http://www.w3.org/2000/svg" viewBox="0 0 1477.78 500">
  <defs>
    <style>
      .cls-1 {
        fill: #fff;
      }

      .cls-2 {
        fill: #00f7ea;
      }

      .cls-3 {
        fill: #5c2de6;
      }
    </style>
  </defs>
  <path class="cls-1" d="M811.41,215.64c-3.62-7.1-6.23-15.43-7.83-25-1.6-9.57-2.4-19.68-2.4-30.32,0-22.34,2.99-39.73,8.98-52.19-9.53,4.59-17.05,11.26-22.55,19.99-5.5,8.73-8.24,19.47-8.24,32.2,0,14.41,2.78,26.15,8.35,35.23,5.57,9.08,13.47,15.78,23.69,20.09Z"/>
  <path class="cls-1" d="M847.52,238.81c15.31,0,26.51-7.41,33.61-22.23-10.51,3.55-22.13,5.32-34.86,5.32-13.5,0-25.12-2.09-34.86-6.26,7.72,15.45,19.76,23.17,36.11,23.17Z"/>
  <path class="cls-1" d="M912.76,184.01h-24.22c-1.18,13.08-3.65,23.94-7.41,32.57,16.21-6.12,26.75-16.98,31.63-32.57Z"/>
  <path class="cls-1" d="M880.61,107.5c-6.4-15.66-17.36-23.48-32.88-23.48-17.26,0-29.78,8.04-37.57,24.11,10.3-4.94,22.41-7.41,36.32-7.41,12.67,0,24.04,2.26,34.13,6.78Z"/>
  <path class="cls-1" d="M910.78,139.97c-1.05-6.89-4.24-13.13-9.6-18.74-5.36-5.6-12.21-10.18-20.56-13.73,3.69,8.84,5.98,19.66,6.89,32.46h23.27Z"/>
  <path class="cls-1" d="M240.7,268.9c-3.59-2.55-8.47-3.82-14.64-3.82h-34.89v15.51h55.56c-.43-5.24-2.44-9.14-6.03-11.68Z"/>
  <path class="cls-1" d="M271.5,268.9c-3.59,2.55-5.6,6.44-6.03,11.68h55.56v-15.51h-34.78c-6.24,0-11.16,1.27-14.75,3.82Z"/>
  <rect class="cls-1" x="246.73" y="280.58" width="18.74" height="134.05"/>
  <path class="cls-1" d="M613.84,366.79v47.83h18.95v-68.91c-5.96.96-10.61,3.28-13.95,6.94-3.33,3.67-5,8.38-5,14.14Z"/>
  <path class="cls-1" d="M733.15,414.62v-48.03c0-5.62-1.69-10.27-5.07-13.94-3.37-3.67-8-5.98-13.89-6.94v68.91h18.95Z"/>
  <path class="cls-1" d="M613.84,267.12v41.35c0,5.97,1.67,10.83,5,14.61,3.34,3.77,7.99,6.14,13.95,7.1v-63.05h-18.95Z"/>
  <path class="cls-1" d="M714.2,330.17c5.88-.96,10.51-3.32,13.89-7.1,3.37-3.77,5.07-8.64,5.07-14.61v-41.35h-18.95v63.05Z"/>
  <path class="cls-1" d="M638.72,330.59c-1.66,0-3.63-.14-5.93-.41v15.53c2.3-.27,4.27-.41,5.93-.41h69.45c1.29,0,3.3.14,6.03.41v-15.53c-2.73.28-4.74.41-6.03.41h-69.45Z"/>
  <g>
    <path class="cls-1" d="M1127.33,345.18c6.61,1.04,11.34,3.48,14.21,7.3,2.87,3.82,4.31,8.8,4.31,14.91v47.24h-102.51v-15.33h83.99s0-54.12,0-54.12Z"/>
    <path class="cls-1" d="M1049.69,344.77v-14.91h70.85c3.23,0,5.49-.07,6.78-.21v15.54c-2.58-.28-4.85-.42-6.78-.42h-70.85Z"/>
    <path class="cls-1" d="M1045.49,280.53v-15.43h100.36v42.55c0,7.09-1.38,12.36-4.14,15.8s-7.55,5.51-14.37,6.2v-49.11s-81.84,0-81.84,0Z"/>
  </g>
  <path class="cls-1" d="M244.02,239.74c33.4,0,52.56-19.48,52.56-53.46v-99.26h-18v100.83c0,21.75-5.86,35.23-35.01,35.23-21.61,0-35.01-5.89-35.01-35.23v-11.35h-18v9.79c0,15.79,4.28,28.93,12.39,38,9.17,10.26,22.99,15.46,41.07,15.46Z"/>
  <polygon class="cls-1" points="574 220.74 491.81 220.74 491.81 87.02 474.7 87.02 474.7 236.5 574 236.5 574 220.74"/>
  <rect class="cls-1" x="600.63" y="87.12" width="17.11" height="149.38"/>
  <path class="cls-1" d="M719.96,156.25l-25.98-6.05c-21.97-5.16-29.77-9.94-29.77-26.52s12.31-24.04,36.58-24.04c26.73,0,39.72,10.87,39.72,33.22v3.07h17.1v-3.51c0-22.49-14.82-48.75-56.59-48.75-16.84,0-30.85,4.24-40.5,12.26-8.79,7.3-13.63,17.56-13.63,28.88,0,21.87,12.75,34.72,40.12,40.45l25.98,5.82c22.8,4.97,29.76,11.37,29.76,27.41,0,17.01-11.41,24.93-35.9,24.93-30.25,0-43.74-10.24-43.74-33.22v-3.07h-17.11v3.96c0,13.75,5.01,25.5,14.48,33.96,10.65,9.52,26.1,14.35,45.92,14.35,32.61,0,53.68-16.41,53.68-41.81,0-22.05-12.75-35.19-40.11-41.35Z"/>
  <path class="cls-1" d="M530.32,262.36c-42.72,0-69.25,29.99-69.25,78.26s26.54,78.26,69.25,78.26c37.97,0,62.5-22.24,62.5-56.65v-2.4h-18.31v2.4c0,26.86-14.75,39.91-45.09,39.91-34.29,0-50.27-19.55-50.27-61.52s15.97-61.52,50.27-61.52c30.34,0,45.09,13.06,45.09,39.91v2.4h18.31v-2.4c0-34.41-24.53-56.65-62.5-56.65Z"/>
  <path class="cls-1" d="M397.87,104.5l32.69,131.4h20.89l-28.18-102.62c-4.02-14.65-13.82-24.24-25.41-28.79Z"/>
  <path class="cls-1" d="M367.52,94.71l-2.43,9.8c10.44-4.1,22.34-4.11,32.78-.01l-2.44-9.8c-3.62-14.55-24.31-14.54-27.91.02Z"/>
  <path class="cls-1" d="M339.69,133.33l-28.03,102.57h20.89l32.54-131.39c-11.59,4.56-21.39,14.16-25.4,28.82Z"/>
  <path class="cls-1" d="M359.52,345.72c2.34-.24,4.42-.36,6.18-.36h71.45v-16.11h-71.45c-2.84,0-4.88-.05-6.18-.15v-47.97h81.84v-16.64h-101.56v150.74h103.71v-16.53h-83.99v-52.98Z"/>
  <path class="cls-1" d="M1231.53,315.24l45.76-49.73v-.42h-22.88l-26.54,27.89c-6.76,7.04-11.48,13.29-14.16,18.75-2.68,5.47-4.3,11.47-4.86,18.02,3.76-.56,7.38-1.91,10.86-4.07,3.48-2.16,7.42-5.64,11.81-10.45Z"/>
  <path class="cls-1" d="M1208.86,329.77c-1.75.28-4.6.42-8.57.42h-13.89v-65.09h-18.18v149.82h18.18v-69.58h13.89c3.97,0,6.96.14,8.98.42-.42-2.72-.63-5.4-.63-8.05,0-3.76.07-6.41.21-7.94Z"/>
  <path class="cls-1" d="M1233.93,359.02c-4.18-4.39-8.24-7.58-12.17-9.56-3.93-1.98-8.1-3.22-12.48-3.71,1.19,6.76,3.88,13.41,8.1,19.95,4.22,6.55,10.29,13.83,18.23,21.84l27.37,27.37h24.24v-.42l-53.28-55.48Z"/>
  <path class="cls-1" d="M1011.65,345.18c-2.58-.28-4.85-.42-6.78-.42h-70.85v-14.91h70.85c3.23,0,5.49-.07,6.78-.21v-49.11s-81.84,0-81.84,0v-15.43h100.36v42.55s0,59.75,0,59.75v47.24h-102.51v-15.33h83.99s0-54.12,0-54.12Z"/>
  <path class="cls-1" d="M878.38,405.34h.18c6.36,0,11.59-5.02,11.85-11.38l5.11-126.84h16.03l-4.56,124.36c-.56,15.29-13.12,27.39-28.41,27.39h0c-14.3,0-26.38-10.63-28.2-24.81l-14.1-109.83h-10.33l-14.1,109.84c-1.82,14.19-13.9,24.81-28.2,24.81h0c-15.3,0-27.85-12.1-28.41-27.39l-4.56-124.36h16.75l4.78,126.45c.24,6.37,5.47,11.41,11.85,11.41h0c5.94,0,10.96-4.39,11.75-10.28l17.15-127.58h36.88l16.82,127.9c.78,5.9,5.8,10.31,11.75,10.31Z"/>
  <g>
    <g>
      <path class="cls-3" d="M1129.22,222.12c-1.22.48-2.46.94-3.75,1.31-.18.1-.36.15-.56.17-.62.21-1.22.36-1.86.52-.73.2-1.47.38-2.22.53-.91.2-1.83.38-2.77.53-1.16.2-2.38.35-3.59.48-.74.08-1.5.15-2.29.21-.97.07-1.94.13-2.97.18h-.2c-1.02.01-2.06.04-3.1.04h-.01c-1.05,0-2.08-.03-3.1-.04h-.2c-1.02-.06-2.03-.11-2.99-.18-.71-.06-1.43-.13-2.14-.21-.41-.01-.78-.07-1.19-.13-.85-.1-1.69-.22-2.53-.35-.94-.15-1.87-.31-2.8-.53-12.42-2.59-21.54-8.78-27.52-18.81v22.99c4.39,3.51,9.23,6.36,14.46,8.53,1.05.45,2.14.85,3.2,1.26,1.09.38,2.18.77,3.3,1.09,1.1.34,2.22.64,3.37.94h.03c1.09.28,2.2.52,3.34.74.06,0,.1.03.13.03,1.17.22,2.34.43,3.52.57,1.12.18,2.27.31,3.4.41,2.55.27,5.1.39,7.73.39s5.03-.11,7.47-.36c2.46-.22,4.84-.56,7.17-1.01,1.19-.24,2.34-.49,3.47-.77,1.15-.28,2.29-.6,3.4-.94,1.12-.32,2.21-.71,3.3-1.09,6.45-2.36,12.38-5.69,17.66-9.97v-22.84c-4.55,7.62-10.91,13.03-19.16,16.31ZM1130.59,84.84c-2.13-.78-4.34-1.41-6.57-1.97-1.13-.28-2.28-.53-3.47-.77-2.49-.48-5.05-.82-7.69-1.06-.85-.07-1.75-.13-2.63-.17-1.43-.11-2.87-.14-4.32-.14s-2.91.06-4.36.14c-2.31.1-4.56.32-6.77.66-1.19.15-2.35.35-3.52.57-.03,0-.07.03-.13.03-1.15.24-2.25.46-3.34.74-1.5.35-2.98.78-4.39,1.24-7.37,2.32-14.07,5.87-19.97,10.59v22.98c5.99-10.03,15.1-16.22,27.52-18.81.92-.22,1.86-.38,2.8-.53.84-.13,1.68-.25,2.53-.35.41-.06.78-.1,1.19-.13.71-.08,1.43-.15,2.14-.21.96-.07,1.97-.13,2.99-.17h.2c1.02-.03,2.06-.06,3.1-.06h.01c1.05,0,2.08.03,3.1.06h.2c1.02.04,2,.1,2.97.17.8.06,1.55.13,2.29.21,1.22.13,2.43.28,3.59.48.94.15,1.86.34,2.77.53.76.15,1.5.34,2.22.53.64.15,1.24.31,1.86.52.2.01.38.07.56.17,1.29.39,2.53.84,3.75,1.33,8.25,3.26,14.61,8.67,19.16,16.29v-22.84c-5.31-4.29-11.29-7.65-17.79-10.03Z"/>
      <path class="cls-3" d="M1059.75,100.32c1.27,0,2.49.03,3.7.08v-16.69c-1.22-.05-2.46-.08-3.7-.08-20.47,0-37.85,7.38-50.25,21.31-12.43,13.98-19,33.58-19,56.69s6.57,42.72,19,56.67c12.4,13.95,29.78,21.33,50.25,21.33,1.24,0,2.49-.03,3.7-.08v-16.69c-1.22.05-2.44.08-3.7.08-34.95,0-51.24-19.48-51.24-61.31s16.28-61.31,51.24-61.31Z"/>
      <path class="cls-3" d="M996.4,105.04v-17.15c-9.69,3.55-18.16,9.28-25.09,17.05-12.4,13.98-19,33.58-19,56.69s6.6,42.72,19,56.67c6.92,7.79,15.4,13.52,25.09,17.07v-17.15c-17.65-8.07-26.05-26.58-26.05-56.59s8.4-48.52,26.05-56.59Z"/>
      <path class="cls-3" d="M936.84,161.63c0,13.44,2.23,25.72,6.57,36.37v-72.77c-4.34,10.65-6.57,22.93-6.57,36.4Z"/>
      <path class="cls-3" d="M1202.33,104.94c-12.4-13.93-29.78-21.31-50.25-21.31-1.24,0-2.49.03-3.7.08v16.69c1.22-.05,2.43-.08,3.7-.08,34.95,0,51.24,19.48,51.24,61.31s-16.28,61.31-51.24,61.31c-1.27,0-2.49-.03-3.7-.08v16.69c1.22.05,2.46.08,3.7.08,20.47,0,37.85-7.38,50.25-21.33,12.43-13.95,19-33.56,19-56.67s-6.57-42.72-19-56.69Z"/>
      <path class="cls-3" d="M1240.03,104.94c-6.92-7.76-15.4-13.49-25.09-17.05v17.15c17.65,8.07,26.05,26.58,26.05,56.59s-8.4,48.52-26.05,56.59v17.15c9.69-3.55,18.16-9.28,25.09-17.07,12.4-13.95,19-33.56,19-56.67s-6.59-42.72-19-56.69Z"/>
      <path class="cls-3" d="M1267.93,125.23v72.77c4.34-10.65,6.57-22.93,6.57-36.37s-2.23-25.75-6.57-36.4Z"/>
    </g>
    <g>
      <path class="cls-2" d="M1137.61,222.12c-1.22.48-2.46.94-3.75,1.31-.18.1-.36.15-.56.17-.62.21-1.22.36-1.86.52-.73.2-1.47.38-2.22.53-.91.2-1.83.38-2.77.53-1.16.2-2.38.35-3.59.48-.74.08-1.5.15-2.29.21-.97.07-1.94.13-2.97.18h-.2c-1.02.01-2.06.04-3.1.04h-.01c-1.05,0-2.08-.03-3.1-.04h-.2c-1.02-.06-2.03-.11-2.99-.18-.71-.06-1.43-.13-2.14-.21-.41-.01-.78-.07-1.19-.13-.85-.1-1.69-.22-2.53-.35-.94-.15-1.87-.31-2.8-.53-12.42-2.59-21.54-8.78-27.52-18.81v22.99c4.39,3.51,9.23,6.36,14.46,8.53,1.05.45,2.14.85,3.2,1.26,1.09.38,2.18.77,3.3,1.09,1.1.34,2.22.64,3.37.94h.03c1.09.28,2.2.52,3.34.74.06,0,.1.03.13.03,1.17.22,2.34.43,3.52.57,1.12.18,2.27.31,3.4.41,2.55.27,5.1.39,7.73.39s5.03-.11,7.47-.36c2.46-.22,4.84-.56,7.17-1.01,1.19-.24,2.34-.49,3.47-.77,1.15-.28,2.29-.6,3.4-.94,1.12-.32,2.21-.71,3.3-1.09,6.45-2.36,12.38-5.69,17.66-9.97v-22.84c-4.55,7.62-10.91,13.03-19.16,16.31ZM1138.98,84.84c-2.13-.78-4.34-1.41-6.57-1.97-1.13-.28-2.28-.53-3.47-.77-2.49-.48-5.05-.82-7.69-1.06-.85-.07-1.75-.13-2.63-.17-1.43-.11-2.87-.14-4.32-.14s-2.91.06-4.36.14c-2.31.1-4.56.32-6.77.66-1.19.15-2.35.35-3.52.57-.03,0-.07.03-.13.03-1.15.24-2.25.46-3.34.74-1.5.35-2.98.78-4.39,1.24-7.37,2.32-14.07,5.87-19.97,10.59v22.98c5.99-10.03,15.1-16.22,27.52-18.81.92-.22,1.86-.38,2.8-.53.84-.13,1.68-.25,2.53-.35.41-.06.78-.1,1.19-.13.71-.08,1.43-.15,2.14-.21.96-.07,1.97-.13,2.99-.17h.2c1.02-.03,2.06-.06,3.1-.06h.01c1.05,0,2.08.03,3.1.06h.2c1.02.04,2,.1,2.97.17.8.06,1.55.13,2.29.21,1.22.13,2.43.28,3.59.48.94.15,1.86.34,2.77.53.76.15,1.5.34,2.22.53.64.15,1.24.31,1.86.52.2.01.38.07.56.17,1.29.39,2.53.84,3.75,1.33,8.25,3.26,14.61,8.67,19.16,16.29v-22.84c-5.31-4.29-11.29-7.65-17.79-10.03Z"/>
      <path class="cls-2" d="M1068.15,100.32c1.27,0,2.49.03,3.7.08v-16.69c-1.22-.05-2.46-.08-3.7-.08-20.47,0-37.85,7.38-50.25,21.31-12.43,13.98-19,33.58-19,56.69s6.57,42.72,19,56.67c12.4,13.95,29.78,21.33,50.25,21.33,1.24,0,2.49-.03,3.7-.08v-16.69c-1.22.05-2.44.08-3.7.08-34.95,0-51.24-19.48-51.24-61.31s16.28-61.31,51.24-61.31Z"/>
      <path class="cls-2" d="M1004.79,105.04v-17.15c-9.69,3.55-18.16,9.28-25.09,17.05-12.4,13.98-19,33.58-19,56.69s6.6,42.72,19,56.67c6.92,7.79,15.4,13.52,25.09,17.07v-17.15c-17.65-8.07-26.05-26.58-26.05-56.59s8.4-48.52,26.05-56.59Z"/>
      <path class="cls-2" d="M945.23,161.63c0,13.44,2.23,25.72,6.57,36.37v-72.77c-4.34,10.65-6.57,22.93-6.57,36.4Z"/>
      <path class="cls-2" d="M1210.72,104.94c-12.4-13.93-29.78-21.31-50.25-21.31-1.24,0-2.49.03-3.7.08v16.69c1.22-.05,2.43-.08,3.7-.08,34.95,0,51.24,19.48,51.24,61.31s-16.28,61.31-51.24,61.31c-1.27,0-2.49-.03-3.7-.08v16.69c1.22.05,2.46.08,3.7.08,20.47,0,37.85-7.38,50.25-21.33,12.43-13.95,19-33.56,19-56.67s-6.57-42.72-19-56.69Z"/>
      <path class="cls-2" d="M1248.42,104.94c-6.92-7.76-15.4-13.49-25.09-17.05v17.15c17.65,8.07,26.05,26.58,26.05,56.59s-8.4,48.52-26.05,56.59v17.15c9.69-3.55,18.16-9.28,25.09-17.07,12.4-13.95,19-33.56,19-56.67s-6.59-42.72-19-56.69Z"/>
      <path class="cls-2" d="M1276.32,125.23v72.77c4.34-10.65,6.57-22.93,6.57-36.37s-2.23-25.75-6.57-36.4Z"/>
    </g>
    <g>
      <path class="cls-1" d="M1133.42,222.12c-1.22.48-2.46.94-3.75,1.31-.18.1-.36.15-.56.17-.62.21-1.22.36-1.86.52-.73.2-1.47.38-2.22.53-.91.2-1.83.38-2.77.53-1.16.2-2.38.35-3.59.48-.74.08-1.5.15-2.29.21-.97.07-1.94.13-2.97.18h-.2c-1.02.01-2.06.04-3.1.04h-.01c-1.05,0-2.08-.03-3.1-.04h-.2c-1.02-.06-2.03-.11-2.99-.18-.71-.06-1.43-.13-2.14-.21-.41-.01-.78-.07-1.19-.13-.85-.1-1.69-.22-2.53-.35-.94-.15-1.87-.31-2.8-.53-12.42-2.59-21.54-8.78-27.52-18.81v22.99c4.39,3.51,9.23,6.36,14.46,8.53,1.05.45,2.14.85,3.2,1.26,1.09.38,2.18.77,3.3,1.09,1.1.34,2.22.64,3.37.94h.03c1.09.28,2.2.52,3.34.74.06,0,.1.03.13.03,1.17.22,2.34.43,3.52.57,1.12.18,2.27.31,3.4.41,2.55.27,5.1.39,7.73.39s5.03-.11,7.47-.36c2.46-.22,4.84-.56,7.17-1.01,1.19-.24,2.34-.49,3.47-.77,1.15-.28,2.29-.6,3.4-.94,1.12-.32,2.21-.71,3.3-1.09,6.45-2.36,12.38-5.69,17.66-9.97v-22.84c-4.55,7.62-10.91,13.03-19.16,16.31ZM1134.79,84.84c-2.13-.78-4.34-1.41-6.57-1.97-1.13-.28-2.28-.53-3.47-.77-2.49-.48-5.05-.82-7.69-1.06-.85-.07-1.75-.13-2.63-.17-1.43-.11-2.87-.14-4.32-.14s-2.91.06-4.36.14c-2.31.1-4.56.32-6.77.66-1.19.15-2.35.35-3.52.57-.03,0-.07.03-.13.03-1.15.24-2.25.46-3.34.74-1.5.35-2.98.78-4.39,1.24-7.37,2.32-14.07,5.87-19.97,10.59v22.98c5.99-10.03,15.1-16.22,27.52-18.81.92-.22,1.86-.38,2.8-.53.84-.13,1.68-.25,2.53-.35.41-.06.78-.1,1.19-.13.71-.08,1.43-.15,2.14-.21.96-.07,1.97-.13,2.99-.17h.2c1.02-.03,2.06-.06,3.1-.06h.01c1.05,0,2.08.03,3.1.06h.2c1.02.04,2,.1,2.97.17.8.06,1.55.13,2.29.21,1.22.13,2.43.28,3.59.48.94.15,1.86.34,2.77.53.76.15,1.5.34,2.22.53.64.15,1.24.31,1.86.52.2.01.38.07.56.17,1.29.39,2.53.84,3.75,1.33,8.25,3.26,14.61,8.67,19.16,16.29v-22.84c-5.31-4.29-11.29-7.65-17.79-10.03Z"/>
      <path class="cls-1" d="M1063.95,100.32c1.27,0,2.49.03,3.7.08v-16.69c-1.22-.05-2.46-.08-3.7-.08-20.47,0-37.85,7.38-50.25,21.31-12.43,13.98-19,33.58-19,56.69s6.57,42.72,19,56.67c12.4,13.95,29.78,21.33,50.25,21.33,1.24,0,2.49-.03,3.7-.08v-16.69c-1.22.05-2.44.08-3.7.08-34.95,0-51.24-19.48-51.24-61.31s16.28-61.31,51.24-61.31Z"/>
      <path class="cls-1" d="M1000.59,105.04v-17.15c-9.69,3.55-18.16,9.28-25.09,17.05-12.4,13.98-19,33.58-19,56.69s6.6,42.72,19,56.67c6.92,7.79,15.4,13.52,25.09,17.07v-17.15c-17.65-8.07-26.05-26.58-26.05-56.59s8.4-48.52,26.05-56.59Z"/>
      <path class="cls-1" d="M941.03,161.63c0,13.44,2.23,25.72,6.57,36.37v-72.77c-4.34,10.65-6.57,22.93-6.57,36.4Z"/>
      <path class="cls-1" d="M1206.53,104.94c-12.4-13.93-29.78-21.31-50.25-21.31-1.24,0-2.49.03-3.7.08v16.69c1.22-.05,2.43-.08,3.7-.08,34.95,0,51.24,19.48,51.24,61.31s-16.28,61.31-51.24,61.31c-1.27,0-2.49-.03-3.7-.08v16.69c1.22.05,2.46.08,3.7.08,20.47,0,37.85-7.38,50.25-21.33,12.43-13.95,19-33.56,19-56.67s-6.57-42.72-19-56.69Z"/>
      <path class="cls-1" d="M1244.23,104.94c-6.92-7.76-15.4-13.49-25.09-17.05v17.15c17.65,8.07,26.05,26.58,26.05,56.59s-8.4,48.52-26.05,56.59v17.15c9.69-3.55,18.16-9.28,25.09-17.07,12.4-13.95,19-33.56,19-56.67s-6.59-42.72-19-56.69Z"/>
      <path class="cls-1" d="M1272.13,125.23v72.77c4.34-10.65,6.57-22.93,6.57-36.37s-2.23-25.75-6.57-36.4Z"/>
    </g>
  </g>
</svg>