<?xml version="1.0" encoding="UTF-8"?>
<svg id="Capa_2" data-name="Capa 2" xmlns="http://www.w3.org/2000/svg" viewBox="0 0 795.98 286.94">
  <defs>
    <style>
      .cls-1 {
        fill: #fff;
      }
    </style>
  </defs>
  <g id="Capa_1-2" data-name="Capa 1">
    <g id="Logo-Estandar-Blanco">
      <g>
        <path class="cls-1" d="M18.6,186L0,171.53c7.83-10.07,12.31-17.58,15.96-26.79l21.91,8.68c-4.48,11.32-10.06,20.76-19.27,32.58Z"/>
        <path class="cls-1" d="M370.58,202.89c-3.36.05-6.79-.28-10.28-1.03-13.42-2.88-24.39-10.65-30.89-21.89-7.06-12.2-8.4-27.63-3.68-42.31,7.2-22.39,20.15-40.09,40.77-55.7,4.02-3.04,8-5.9,12.08-8.57-28.61-9.5-55.27,7.9-69.94,26.6l-18.54-14.55c27.29-34.78,67.69-47.23,102.95-31.7,4.04,1.78,7.83,3.88,11.36,6.27,6.53-2.5,13.63-4.61,21.6-6.3,27.12-5.74,58.01,10.05,67.47,34.46l-21.98,8.51c-5.24-13.54-24.98-23.22-40.61-19.91-2.7.57-5.28,1.2-7.76,1.88,12.35,18.05,16.55,41.89,10.28,66.24-6.54,25.39-31.77,57.57-62.83,58ZM400.57,87.67c-6.85,3.69-13.2,8.06-19.84,13.08-16.8,12.72-26.84,26.33-32.56,44.12-2.69,8.36-2.09,16.85,1.64,23.31,3.21,5.55,8.4,9.14,15.43,10.64,19.99,4.28,40.54-21.12,45.35-39.81,4.41-17.1,2.26-37.21-10.02-51.35Z"/>
        <path class="cls-1" d="M125.64,176.82c-3.6.05-7.17-.58-10.61-1.88-17.25-6.55-27-28.5-33.45-43.02-.76-1.71-1.46-3.3-2.12-4.72-3.54-7.65-6.99-12.22-10.85-14.37-2.8-1.55-5.09-1.78-7.68-.75-7.17,2.85-14.47,14.06-17.38,23.25l-22.47-7.12c3.46-10.9,13.91-31.18,31.15-38.03,9.22-3.66,18.84-2.95,27.83,2.06,11.1,6.17,17.18,17.26,20.79,25.07.71,1.52,1.46,3.23,2.27,5.05,4.27,9.61,12.21,27.49,20.28,30.56,1.11.42,2.58.69,5.15-.48,2.31-1.05,4.62-3.39,6.49-6.58,4.86-8.3,7.94-17.97,11.2-28.2,3.86-12.11,7.84-24.62,15.2-35.91,6.74-10.33,16.7-16.82,27.33-17.8,9.11-.84,17.34,1.58,23.79,7.02,14.52,12.25,16.41,36.59,17.66,52.7.18,2.38.35,4.58.55,6.49,1.83,17.69,7.24,18.53,9.84,18.94,11.48,1.78,21.15-13.89,31.67-33.01,2.5-4.54,7-10.98,9.36-14.65l17.69,14.87c-1.93,3-4.1,6.96-6.4,11.14-10.82,19.68-27.19,49.43-55.94,44.94-17.23-2.68-27.2-16.08-29.65-39.8-.22-2.09-.4-4.49-.6-7.09-.83-10.7-2.37-30.62-9.35-36.5-1.08-.91-2.78-1.91-6.42-1.57-3.32.31-7.06,3.07-9.76,7.21-5.61,8.61-8.95,19.09-12.49,30.19-3.51,11.01-7.13,22.4-13.33,32.97-4.37,7.45-10.27,13.03-17.06,16.12-4.18,1.9-8.45,2.89-12.66,2.95Z"/>
        <path class="cls-1" d="M641.46,178.02c-2.18.03-4.44-.16-6.78-.6-25.02-4.69-30.77-36.53-32.66-46.99-6.45-35.76-13.2-36.93-14.44-36.84-8.96.84-14.89,16.41-20.61,31.47-6.25,16.45-12.72,33.45-26.18,42.51-8.74,5.88-17.53,7.33-27.65,4.56-7.5-2.05-14-7.5-19.3-16.19-7.22-11.82-9.93-21.14-15.85-41.57l-.31-1.05,22.63-6.57.31,1.06c5.64,19.44,7.75,26.71,13.33,35.85,2.3,3.77,4.3,5.44,5.41,5.74,3.56.98,5.18.7,8.28-1.38,7.25-4.88,12.37-18.33,17.31-31.33,7.91-20.79,16.87-44.35,40.45-46.55,29.24-2.74,36.65,38.51,39.82,56.11,4.29,23.75,11.08,27.51,13.8,28.01,11.22,2.1,18.65-19.7,20.55-28.28,4.75-21.41,10.53-43.5,20.51-60.02,12.06-19.97,29.49-36.45,49.09-46.39l10.67,21.02c-15.71,7.97-29.77,21.31-39.58,37.56-8.25,13.66-13.56,34.43-17.67,52.94-4.96,22.34-18.54,46.63-41.12,46.94Z"/>
        <path class="cls-1" d="M756.05,31.93l-9.86-21.4c5.54-2.55,12.48-5.44,21.92-7.51,11.38-2.49,17.88-3.18,27.88-2.99l-.47,23.56c-8.04-.16-12.85.37-22.37,2.45-7.22,1.58-12.48,3.76-17.09,5.89Z"/>
      </g>
      <g>
        <path class="cls-1" d="M24.5,228.04c-2.98,0-5.4,2.42-5.4,5.4s2.42,5.4,5.4,5.4,5.4-2.42,5.4-5.4-2.42-5.4-5.4-5.4Z"/>
        <rect class="cls-1" x="19.01" y="243.6" width="10.85" height="42.55"/>
        <path class="cls-1" d="M62.78,242.73c-6.7,0-12.07,2.32-15.64,6.72v-5.93h-10.85v42.55h10.85v-22.5c0-8.23,6.34-12.53,12.6-12.53s9.47,3.66,9.47,10.87v24.16h10.85v-25.5c0-14.74-9.39-17.83-17.27-17.83Z"/>
        <path class="cls-1" d="M112.47,242.73c-6.7,0-12.07,2.32-15.64,6.72v-5.93h-10.85v42.55h10.85v-22.5c0-8.23,6.34-12.53,12.6-12.53s9.47,3.66,9.47,10.87v24.16h10.85v-25.5c0-14.74-9.39-17.83-17.27-17.83Z"/>
        <path class="cls-1" d="M157.94,242.73c-14.19,0-24.09,9.09-24.09,22.1s9.91,22.1,24.09,22.1,24-9.09,24-22.1-9.87-22.1-24-22.1ZM170.82,264.83c0,8.38-5.06,13.8-12.88,13.8s-12.97-5.42-12.97-13.8,5.09-13.79,12.97-13.79,12.88,5.41,12.88,13.79Z"/>
        <polygon class="cls-1" points="219.32 243.6 205.75 275.52 192.19 243.6 180.26 243.6 199.79 285.76 199.98 286.15 211.53 286.15 230.8 244.56 231.24 243.6 219.32 243.6"/>
        <path class="cls-1" d="M251.74,242.73c-8.36,0-14.95,2.57-19.58,7.65l-.52.57,7.86,5.54.4-.48c2.68-3.25,6.71-4.97,11.65-4.97,6.38,0,10.52,2.81,10.57,7.15-8.77-.42-20.7,1.79-26.86,7.57-2.74,2.57-4.12,5.61-4.12,9.03,0,7.38,6.45,12.14,16.44,12.14,5.96,0,11.07-1.79,14.54-5.07v4.28h10.85v-28.04c0-9.49-8.14-15.38-21.24-15.38ZM262.13,271.24c0,4.54-5.13,8.1-11.68,8.1-4,0-8.27-1.46-8.27-5.57,0-1.68.68-3.21,2.03-4.53,3.8-3.74,11.75-5.08,17.92-5.08v7.08Z"/>
        <path class="cls-1" d="M300.85,251.04c4.4,0,8.34,1.78,10.81,4.89l.39.5,7.89-5.47-.52-.57c-4.6-5.01-10.95-7.65-18.39-7.65-14.08,0-23.91,9.09-23.91,22.11s9.83,22.1,23.91,22.1c7.43,0,13.79-2.65,18.38-7.65l.52-.57-7.88-5.46-.4.48c-2.5,3.06-6.54,4.89-10.82,4.89-7.54,0-12.6-5.54-12.6-13.8s5.07-13.79,12.6-13.79Z"/>
        <path class="cls-1" d="M328.92,225.94c-2.98,0-5.4,2.42-5.4,5.4s2.42,5.4,5.4,5.4,5.4-2.42,5.4-5.4-2.42-5.4-5.4-5.4Z"/>
        <rect class="cls-1" x="323.42" y="243.6" width="10.85" height="42.55"/>
        <path class="cls-1" d="M362.97,242.73c-14.19,0-24.09,9.09-24.09,22.1s9.91,22.1,24.09,22.1,24-9.09,24-22.1-9.87-22.1-24-22.1ZM375.85,264.84c0,8.38-5.06,13.79-12.88,13.79s-12.97-5.41-12.97-13.79,5.09-13.79,12.97-13.79,12.88,5.41,12.88,13.79Z"/>
        <path class="cls-1" d="M418.12,242.73c-6.7,0-12.07,2.32-15.64,6.72v-5.93h-10.85v42.55h10.85v-22.5c0-8.23,6.34-12.53,12.6-12.53s9.47,3.66,9.47,10.87v24.16h10.85v-25.5c0-14.74-9.39-17.83-17.27-17.83Z"/>
        <path class="cls-1" d="M494.22,251.04c4.4,0,8.34,1.78,10.81,4.89l.39.5,7.89-5.47-.53-.57c-4.59-5.01-10.95-7.65-18.38-7.65-14.08,0-23.91,9.09-23.91,22.11s9.83,22.1,23.91,22.1c7.43,0,13.79-2.65,18.38-7.65l.53-.57-7.88-5.46-.4.48c-2.5,3.06-6.54,4.89-10.82,4.89-7.54,0-12.6-5.54-12.6-13.8s5.07-13.79,12.6-13.79Z"/>
        <path class="cls-1" d="M527.65,248.94v-5.34h-10.85v42.55h10.85v-22.5c0-6.97,5.36-11.66,13.34-11.66,1.08,0,2.18.14,3.35.28l1.02.12v-9.63l-.64-.03c-5.77-.24-13.35,1.96-17.06,6.21Z"/>
        <path class="cls-1" d="M568.1,242.73c-13.47,0-22.52,8.91-22.52,22.18s9.79,22.03,23.82,22.03c7.6,0,13.82-2.57,18.48-7.65l.52-.57-7.87-5.46-.4.48c-2.56,3.11-6.51,4.9-10.82,4.9-6.68,0-11.47-4.38-12.34-11.22h32.9l.03-.65c.29-7.11-1.91-13.66-6.05-17.97-3.86-4.02-9.16-6.06-15.74-6.06ZM557.25,260.76c.94-6.01,5.05-9.72,10.85-9.72s9.84,3.71,10.92,9.72h-21.77Z"/>
        <path class="cls-1" d="M613.12,242.73c-8.36,0-14.95,2.57-19.59,7.65l-.51.57,7.87,5.54.4-.48c2.68-3.25,6.71-4.97,11.65-4.97,6.38,0,10.52,2.81,10.57,7.15-8.75-.41-20.7,1.79-26.85,7.57-2.74,2.57-4.12,5.61-4.12,9.03,0,7.38,6.45,12.14,16.44,12.14,5.96,0,11.07-1.79,14.54-5.07v4.28h10.85v-28.04c0-9.49-8.14-15.38-21.24-15.38ZM623.51,264.16v7.08c0,4.54-5.13,8.1-11.68,8.1-4,0-8.27-1.46-8.27-5.57,0-1.68.68-3.21,2.03-4.53,3.8-3.74,11.75-5.08,17.92-5.08Z"/>
        <path class="cls-1" d="M660.29,278.63c-4.62,0-6.42-2-6.42-7.15v-19.57h12.26v-8.31h-12.26v-11.23h-10.85v11.23h-6.18v8.31h6.18v19.72c0,9.73,5.99,15.3,16.44,15.3,2.15,0,4.6-.29,6.82-.84l.4-.1v-8.35l-.84.21c-1.98.51-3.85.77-5.55.77Z"/>
        <path class="cls-1" d="M676.4,228.04c-2.98,0-5.4,2.42-5.4,5.4s2.42,5.4,5.4,5.4,5.4-2.42,5.4-5.4-2.42-5.4-5.4-5.4Z"/>
        <rect class="cls-1" x="670.91" y="243.6" width="10.85" height="42.55"/>
        <polygon class="cls-1" points="723.31 243.6 709.74 275.52 696.31 243.91 696.17 243.6 684.25 243.6 703.78 285.76 703.97 286.15 715.52 286.15 734.79 244.56 735.23 243.6 723.31 243.6"/>
        <path class="cls-1" d="M755.74,242.73c-8.36,0-14.95,2.57-19.59,7.65l-.51.57,7.87,5.54.4-.48c2.68-3.25,6.71-4.97,11.65-4.97,6.38,0,10.52,2.81,10.57,7.15-8.76-.41-20.7,1.79-26.85,7.57-2.74,2.57-4.12,5.61-4.12,9.03,0,7.38,6.45,12.14,16.44,12.14,5.96,0,11.07-1.79,14.54-5.07v4.28h10.85v-28.04c0-9.49-8.14-15.38-21.24-15.38ZM766.12,264.16v7.08c0,4.54-5.13,8.1-11.68,8.1-4,0-8.27-1.46-8.27-5.57,0-1.68.68-3.21,2.03-4.53,3.8-3.74,11.75-5.08,17.92-5.08Z"/>
        <path class="cls-1" d="M366.53,239.38c.92-1.32,2-2.76,3.7-4.32,2.41-2.23,3.58-3.23,5.44-4.12l.47-.23-3.71-7.78-.47.23c-3.02,1.44-4.88,3.07-7.59,5.57-2.32,2.14-3.79,4.1-4.92,5.73l-.3.43,7.07,4.92.3-.43Z"/>
      </g>
    </g>
  </g>
</svg>